<svg width="48" height="48" viewBox="0 0 48 48" xmlns="http://www.w3.org/2000/svg" >
    <path d="M40.98 7.02C36.66 2.7 30.6 0 24 0C17.4 0 11.34 2.7 7.02 7.02C2.7 11.34 0 17.4 0 24C0 30.6 2.7 36.66 7.02 40.98C11.34 45.3 17.4 48 24 48C30.6 48 36.66 45.3 40.98 40.98C45.3 36.66 48 30.6 48 24C48 17.4 45.3 11.34 40.98 7.02ZM44.88 17.64C38.94 16.74 33.84 14.88 29.88 12.9C30.24 12.72 30.6 12.48 30.96 12.3C34.62 14.04 39.24 15.66 44.52 16.56C44.64 16.92 44.76 17.28 44.88 17.64ZM44.04 15.48C39.36 14.64 35.34 13.26 31.98 11.7C32.34 11.46 32.7 11.28 33 11.04C36 12.36 39.54 13.56 43.5 14.34C43.74 14.76 43.92 15.12 44.04 15.48ZM42.96 13.26C39.66 12.54 36.66 11.58 34.08 10.5C34.44 10.26 34.74 10.02 35.1 9.84C37.26 10.68 39.66 11.52 42.24 12.12C42.48 12.42 42.72 12.84 42.96 13.26ZM41.34 10.8C39.42 10.32 37.68 9.72 36.06 9.06C36.06 9.06 36.06 9.06 36.12 9.06C36.48 8.82 36.78 8.58 37.02 8.4C38.04 8.76 39.12 9.12 40.26 9.48C40.62 9.9 40.98 10.32 41.34 10.8ZM37.92 7.62C37.98 7.56 38.04 7.5 38.1 7.44C38.28 7.62 38.46 7.74 38.64 7.92C38.4 7.8 38.16 7.74 37.92 7.62ZM21.96 2.28C19.32 3.54 16.2 4.68 12.6 5.46C15.36 3.72 18.54 2.64 21.96 2.28ZM10.62 6.78C15.72 6 19.98 4.44 23.34 2.76C23.7 2.58 24 2.4 24.36 2.22C24.96 2.22 25.62 2.28 26.22 2.34C25.02 3 23.7 3.72 22.14 4.44C18.66 6 14.28 7.44 9.18 7.98C9.66 7.56 10.14 7.2 10.62 6.78ZM8.1 9.12C13.8 8.64 18.72 7.08 22.56 5.34C24.6 4.38 26.4 3.42 27.78 2.52C28.26 2.58 28.74 2.7 29.16 2.82C28.02 3.6 26.58 4.44 24.9 5.34C20.52 7.56 14.46 9.78 7.14 10.2C7.44 9.78 7.8 9.42 8.1 9.12ZM6.36 11.22C14.22 10.92 20.7 8.58 25.38 6.24C27.48 5.16 29.16 4.08 30.48 3.18C30.9 3.3 31.26 3.42 31.68 3.6C29.88 4.86 27.12 6.66 23.52 8.28C18.84 10.32 12.84 12.12 5.7 12.3C5.88 11.88 6.12 11.52 6.36 11.22ZM5.04 13.26C12.6 13.2 18.96 11.34 23.88 9.18C27.9 7.38 30.96 5.4 32.76 4.08C33.12 4.26 33.42 4.38 33.78 4.56C32.34 5.58 30.06 7.2 27 8.76C21.72 11.52 14.1 14.22 4.74 14.22C4.68 14.22 4.56 14.22 4.5 14.22C4.68 13.92 4.86 13.56 5.04 13.26ZM4.02 15.24C4.26 15.24 4.5 15.24 4.74 15.24C14.28 15.24 22.08 12.42 27.42 9.66C30.84 7.86 33.3 6.12 34.68 5.04C34.98 5.22 35.28 5.4 35.58 5.58C34.26 6.66 31.62 8.64 27.84 10.56C22.32 13.38 14.4 16.26 4.68 16.26C4.32 16.26 3.96 16.26 3.6 16.26C3.78 15.9 3.9 15.6 4.02 15.24ZM3.3 17.22C3.78 17.22 4.26 17.22 4.74 17.22C14.7 17.22 22.8 14.28 28.38 11.4C31.2 9.96 33.36 8.52 34.92 7.38C35.58 6.9 36.12 6.42 36.54 6.12C36.84 6.3 37.08 6.54 37.38 6.72L37.32 6.78C36.06 7.86 33.12 10.08 28.86 12.3C23.16 15.24 14.88 18.24 4.74 18.24C4.14 18.24 3.6 18.24 3 18.18C3.06 17.88 3.18 17.58 3.3 17.22ZM25.56 35.94H22.44V22.56H25.56V35.94ZM23.82 21.66L23.7 21.78H22.74L23.34 21.18L23.82 21.66ZM22.86 20.4L23.34 19.92L23.82 20.4L23.34 20.88L22.86 20.4ZM23.52 21L24 20.52L24.48 21L24 21.48L23.52 21ZM24.66 21.18L25.26 21.78H24.3L24.18 21.66L24.66 21.18ZM24.18 20.4L24.66 19.92L25.14 20.4L24.66 20.88L24.18 20.4ZM24.18 19.08H25.14L24.66 19.56L24.18 19.08ZM24.48 19.74L24 20.22L23.52 19.74L24 19.26L24.48 19.74ZM23.34 19.56L22.86 19.08H23.82L23.34 19.56ZM23.16 19.74L22.68 20.22L22.44 19.98V19.08H22.5L23.16 19.74ZM22.5 20.4L22.44 20.46V20.34L22.5 20.4ZM22.68 20.52L23.16 21L22.44 21.72V20.76L22.68 20.52ZM25.56 21.78L24.84 21L25.32 20.52L25.56 20.76V21.78V21.78ZM25.56 20.46L25.5 20.4L25.56 20.34V20.46ZM25.56 19.92L25.32 20.16L24.84 19.68L25.5 19.02H25.56V19.92V19.92ZM26.34 35.94V19.5V19.08H26.7V18.06H21.24V19.08H21.6V19.44L21.66 19.5V35.94H5.76C3.54 32.52 2.22 28.38 2.22 24C2.22 22.38 2.4 20.76 2.76 19.26C3.42 19.26 4.08 19.32 4.74 19.32C14.76 19.32 22.98 16.5 28.74 13.56C33 15.72 38.52 17.82 45.12 18.78C45.54 20.46 45.78 22.26 45.78 24.06C45.78 28.44 44.46 32.58 42.24 36H26.34V35.94ZM40.14 22.38C39.78 22.08 39.36 21.84 38.94 21.66C38.28 21.42 37.62 21.3 37.02 21.24C36.48 21.18 36 21.18 35.88 21.18C35.88 21.18 35.88 21.18 35.82 21.18C35.82 21.18 35.82 21.18 35.76 21.18C35.52 21.18 34.38 21.18 33.24 21.54C32.64 21.72 32.1 21.96 31.62 22.32C31.38 22.5 31.2 22.74 31.08 23.04C30.96 23.34 30.84 23.64 30.84 24C30.84 24.36 30.9 24.66 31.08 24.96C31.2 25.2 31.38 25.44 31.56 25.62C31.92 25.92 32.34 26.16 32.76 26.34C33.42 26.58 34.08 26.7 34.68 26.76C35.22 26.82 35.7 26.82 35.82 26.82C35.82 26.82 35.82 26.82 35.88 26.82C35.88 26.82 35.88 26.82 35.94 26.82C36.18 26.82 37.32 26.82 38.46 26.46C39.06 26.28 39.6 26.04 40.08 25.68C40.32 25.5 40.5 25.26 40.62 24.96C40.74 24.66 40.86 24.36 40.86 24C40.86 23.64 40.8 23.34 40.62 23.04C40.5 22.8 40.38 22.56 40.14 22.38ZM39.96 24.6C39.9 24.78 39.78 24.9 39.66 25.02C39.42 25.26 39.12 25.44 38.7 25.56C38.16 25.8 37.5 25.92 36.96 25.98C36.42 26.04 36 26.04 35.94 26.04C35.76 26.04 34.62 26.04 33.66 25.74C33.18 25.62 32.7 25.38 32.34 25.08C32.16 24.96 32.04 24.78 31.98 24.6C31.92 24.42 31.86 24.24 31.86 24C31.86 23.76 31.92 23.58 31.98 23.4C32.04 23.22 32.16 23.1 32.28 22.98C32.52 22.74 32.82 22.56 33.24 22.44C33.78 22.2 34.44 22.08 34.98 22.02C35.52 21.96 35.94 21.96 36 21.96C36.18 21.96 37.32 21.96 38.28 22.26C38.76 22.38 39.24 22.62 39.6 22.92C39.78 23.04 39.9 23.22 39.96 23.4C40.02 23.58 40.08 23.76 40.08 24C40.08 24.24 40.02 24.42 39.96 24.6ZM35.94 22.38C35.04 22.38 34.32 23.1 34.32 24C34.32 24.9 35.04 25.62 35.94 25.62C36.84 25.62 37.56 24.9 37.56 24C37.56 23.1 36.84 22.38 35.94 22.38ZM16.32 22.38C15.96 22.08 15.54 21.84 15.12 21.66C14.46 21.42 13.8 21.3 13.2 21.24C12.66 21.18 12.18 21.18 12.06 21.18C12.06 21.18 12.06 21.18 12 21.18C12 21.18 12 21.18 11.94 21.18C11.7 21.18 10.56 21.18 9.42 21.54C8.82 21.72 8.28 21.96 7.8 22.32C7.56 22.5 7.38 22.74 7.26 23.04C7.14 23.34 7.02 23.64 7.02 24C7.02 24.36 7.08 24.66 7.26 24.96C7.38 25.2 7.56 25.44 7.74 25.62C8.1 25.92 8.52 26.16 8.94 26.34C9.6 26.58 10.26 26.7 10.86 26.76C11.4 26.82 11.88 26.82 12 26.82C12 26.82 12 26.82 12.06 26.82C12.06 26.82 12.06 26.82 12.12 26.82C12.36 26.82 13.5 26.82 14.64 26.46C15.24 26.28 15.78 26.04 16.26 25.68C16.5 25.5 16.68 25.26 16.8 24.96C16.92 24.66 17.04 24.36 17.04 24C17.04 23.64 16.98 23.34 16.8 23.04C16.68 22.8 16.5 22.56 16.32 22.38ZM16.14 24.6C16.08 24.78 15.96 24.9 15.84 25.02C15.6 25.26 15.3 25.44 14.88 25.56C14.34 25.8 13.68 25.92 13.14 25.98C12.6 26.04 12.18 26.04 12.12 26.04C11.94 26.04 10.8 26.04 9.84 25.74C9.36 25.62 8.88 25.38 8.52 25.08C8.34 24.96 8.22 24.78 8.16 24.6C8.1 24.42 8.04 24.24 8.04 24C8.04 23.76 8.1 23.58 8.16 23.4C8.22 23.22 8.34 23.1 8.46 22.98C8.7 22.74 9 22.56 9.42 22.44C9.96 22.2 10.62 22.08 11.16 22.02C11.7 21.96 12.12 21.96 12.18 21.96C12.36 21.96 13.5 21.96 14.46 22.26C14.94 22.38 15.42 22.62 15.78 22.92C15.96 23.04 16.08 23.22 16.14 23.4C16.2 23.58 16.26 23.76 16.26 24C16.26 24.24 16.2 24.42 16.14 24.6ZM12.06 22.38C11.16 22.38 10.44 23.1 10.44 24C10.44 24.9 11.16 25.62 12.06 25.62C12.96 25.62 13.68 24.9 13.68 24C13.68 23.1 12.96 22.38 12.06 22.38Z" fill="#111111"/>
</svg>
