<svg width="880" height="548" viewBox="0 0 880 548" fill="none" xmlns="http://www.w3.org/2000/svg">
<rect width="880" height="548" fill="#F5F5F5"/>
<path d="M6.08242 3.5105H133.913L69.9989 114.067L6.08242 3.5105ZM0 0L69.9989 121.086L140 0H0Z" transform="translate(370 240.914)" fill="black"/>
<path d="M2.97065 0H0V8.527H2.97065V0Z" transform="matrix(0.382969 0.92373 -0.92387 0.382631 467.162 287.719)" fill="black"/>
<path d="M2.96438 0H0V8.5209H2.96438V0Z" transform="translate(460.156 278.292) scale(1.00025 0.999732) rotate(45)" fill="black"/>
<path d="M2.97855 0H0V8.51026H2.97855V0Z" transform="matrix(0.92397 0.382531 -0.382869 0.92383 450.049 272.26)" fill="black"/>
<path d="M8.50572 0H0V2.96946H8.50572V0Z" transform="matrix(0.383869 0.92343 -0.92357 0.383531 429.741 272.266)" fill="black"/>
<path d="M8.50274 0H0V2.97346H8.50274V0Z" transform="translate(419.66 278.297) scale(1.00025 0.999732) rotate(44.9838)" fill="black"/>
<path d="M8.54289 0H0V2.97064H8.54289V0Z" transform="matrix(0.92437 0.381531 -0.381869 0.92423 412.672 287.739)" fill="black"/>
<path d="M3.51232 0H0V115.531H3.51232V0Z" transform="translate(438.175 185)" fill="#E03A21"/>
<path d="M66.1573 0H0V3.5105H66.1573V0Z" transform="translate(406.788 298.806)" fill="black"/>
</svg>
